<svg xmlns="http://www.w3.org/2000/svg" xmlns:xlink="http://www.w3.org/1999/xlink" width="500" zoomAndPan="magnify" viewBox="0 0 375 374.999991" height="500" preserveAspectRatio="xMidYMid meet" version="1.0"><defs><clipPath id="bf7406fae1"><path d="M 171.582031 171.46875 L 200.785156 171.46875 L 200.785156 200.671875 L 171.582031 200.671875 Z M 171.582031 171.46875 " clip-rule="nonzero"/></clipPath><clipPath id="3773154938"><path d="M 186.183594 171.46875 C 178.117188 171.46875 171.582031 178.007812 171.582031 186.070312 C 171.582031 194.132812 178.117188 200.671875 186.183594 200.671875 C 194.246094 200.671875 200.785156 194.132812 200.785156 186.070312 C 200.785156 178.007812 194.246094 171.46875 186.183594 171.46875 Z M 186.183594 171.46875 " clip-rule="nonzero"/></clipPath><clipPath id="96bdf50264"><path d="M 141.207031 143.835938 L 231.160156 143.835938 L 231.160156 233.789062 L 141.207031 233.789062 Z M 141.207031 143.835938 " clip-rule="nonzero"/></clipPath><clipPath id="4c2ad6e46e"><path d="M 186.183594 143.835938 C 161.34375 143.835938 141.207031 163.972656 141.207031 188.8125 C 141.207031 213.652344 161.34375 233.789062 186.183594 233.789062 C 211.023438 233.789062 231.160156 213.652344 231.160156 188.8125 C 231.160156 163.972656 211.023438 143.835938 186.183594 143.835938 Z M 186.183594 143.835938 " clip-rule="nonzero"/></clipPath><clipPath id="c42a29d02c"><path d="M 104.960938 107.589844 L 267.40625 107.589844 L 267.40625 270.035156 L 104.960938 270.035156 Z M 104.960938 107.589844 " clip-rule="nonzero"/></clipPath><clipPath id="4a39a82c46"><path d="M 186.183594 107.589844 C 141.328125 107.589844 104.960938 143.953125 104.960938 188.8125 C 104.960938 233.671875 141.328125 270.035156 186.183594 270.035156 C 231.042969 270.035156 267.40625 233.671875 267.40625 188.8125 C 267.40625 143.953125 231.042969 107.589844 186.183594 107.589844 Z M 186.183594 107.589844 " clip-rule="nonzero"/></clipPath><clipPath id="207d2046ed"><path d="M 60.574219 60.574219 L 314.074219 60.574219 L 314.074219 314.074219 L 60.574219 314.074219 Z M 60.574219 60.574219 " clip-rule="nonzero"/></clipPath><clipPath id="b5ea7de379"><path d="M 187.496094 60.574219 C 117.398438 60.574219 60.574219 117.398438 60.574219 187.496094 C 60.574219 257.589844 117.398438 314.414062 187.496094 314.414062 C 257.589844 314.414062 314.414062 257.589844 314.414062 187.496094 C 314.414062 117.398438 257.589844 60.574219 187.496094 60.574219 Z M 187.496094 60.574219 " clip-rule="nonzero"/></clipPath><clipPath id="8e3c2b9c98"><path d="M 91.566406 94.257812 L 101.933594 94.257812 L 101.933594 104.625 L 91.566406 104.625 Z M 91.566406 94.257812 " clip-rule="nonzero"/></clipPath><clipPath id="78bfbe4f97"><path d="M 96.75 94.257812 C 93.886719 94.257812 91.566406 96.578125 91.566406 99.441406 C 91.566406 102.304688 93.886719 104.625 96.75 104.625 C 99.613281 104.625 101.933594 102.304688 101.933594 99.441406 C 101.933594 96.578125 99.613281 94.257812 96.75 94.257812 Z M 96.75 94.257812 " clip-rule="nonzero"/></clipPath><clipPath id="23e3bca17e"><path d="M 181.003906 55.390625 L 191.371094 55.390625 L 191.371094 65.757812 L 181.003906 65.757812 Z M 181.003906 55.390625 " clip-rule="nonzero"/></clipPath><clipPath id="21972589b0"><path d="M 186.1875 55.390625 C 183.324219 55.390625 181.003906 57.710938 181.003906 60.574219 C 181.003906 63.4375 183.324219 65.757812 186.1875 65.757812 C 189.050781 65.757812 191.371094 63.4375 191.371094 60.574219 C 191.371094 57.710938 189.050781 55.390625 186.1875 55.390625 Z M 186.1875 55.390625 " clip-rule="nonzero"/></clipPath><clipPath id="6fcfa954b9"><path d="M 270.101562 94.257812 L 280.46875 94.257812 L 280.46875 104.625 L 270.101562 104.625 Z M 270.101562 94.257812 " clip-rule="nonzero"/></clipPath><clipPath id="3fedb3b621"><path d="M 275.285156 94.257812 C 272.421875 94.257812 270.101562 96.578125 270.101562 99.441406 C 270.101562 102.304688 272.421875 104.625 275.285156 104.625 C 278.148438 104.625 280.46875 102.304688 280.46875 99.441406 C 280.46875 96.578125 278.148438 94.257812 275.285156 94.257812 Z M 275.285156 94.257812 " clip-rule="nonzero"/></clipPath><clipPath id="5b645d239a"><path d="M 309.242188 182.316406 L 319.609375 182.316406 L 319.609375 192.683594 L 309.242188 192.683594 Z M 309.242188 182.316406 " clip-rule="nonzero"/></clipPath><clipPath id="62f0270563"><path d="M 314.425781 182.316406 C 311.5625 182.316406 309.242188 184.636719 309.242188 187.5 C 309.242188 190.363281 311.5625 192.683594 314.425781 192.683594 C 317.289062 192.683594 319.609375 190.363281 319.609375 187.5 C 319.609375 184.636719 317.289062 182.316406 314.425781 182.316406 Z M 314.425781 182.316406 " clip-rule="nonzero"/></clipPath><clipPath id="d66ee7b6ff"><path d="M 270.101562 271.460938 L 280.46875 271.460938 L 280.46875 281.832031 L 270.101562 281.832031 Z M 270.101562 271.460938 " clip-rule="nonzero"/></clipPath><clipPath id="b660d5feaa"><path d="M 275.285156 271.460938 C 272.421875 271.460938 270.101562 273.78125 270.101562 276.644531 C 270.101562 279.507812 272.421875 281.832031 275.285156 281.832031 C 278.148438 281.832031 280.46875 279.507812 280.46875 276.644531 C 280.46875 273.78125 278.148438 271.460938 275.285156 271.460938 Z M 275.285156 271.460938 " clip-rule="nonzero"/></clipPath><clipPath id="e90c99b97d"><path d="M 181.003906 309.242188 L 191.371094 309.242188 L 191.371094 319.609375 L 181.003906 319.609375 Z M 181.003906 309.242188 " clip-rule="nonzero"/></clipPath><clipPath id="c534c2e7d9"><path d="M 186.1875 309.242188 C 183.324219 309.242188 181.003906 311.5625 181.003906 314.425781 C 181.003906 317.289062 183.324219 319.609375 186.1875 319.609375 C 189.050781 319.609375 191.371094 317.289062 191.371094 314.425781 C 191.371094 311.5625 189.050781 309.242188 186.1875 309.242188 Z M 186.1875 309.242188 " clip-rule="nonzero"/></clipPath><clipPath id="fb6f3779b9"><path d="M 91.566406 272.792969 L 101.933594 272.792969 L 101.933594 283.160156 L 91.566406 283.160156 Z M 91.566406 272.792969 " clip-rule="nonzero"/></clipPath><clipPath id="5ae0258913"><path d="M 96.75 272.792969 C 93.886719 272.792969 91.566406 275.113281 91.566406 277.976562 C 91.566406 280.839844 93.886719 283.160156 96.75 283.160156 C 99.613281 283.160156 101.933594 280.839844 101.933594 277.976562 C 101.933594 275.113281 99.613281 272.792969 96.75 272.792969 Z M 96.75 272.792969 " clip-rule="nonzero"/></clipPath><clipPath id="b1dcdec1b5"><path d="M 55.390625 183.628906 L 65.757812 183.628906 L 65.757812 193.996094 L 55.390625 193.996094 Z M 55.390625 183.628906 " clip-rule="nonzero"/></clipPath><clipPath id="d46bacc7ac"><path d="M 60.574219 183.628906 C 57.710938 183.628906 55.390625 185.949219 55.390625 188.8125 C 55.390625 191.675781 57.710938 193.996094 60.574219 193.996094 C 63.4375 193.996094 65.757812 191.675781 65.757812 188.8125 C 65.757812 185.949219 63.4375 183.628906 60.574219 183.628906 Z M 60.574219 183.628906 " clip-rule="nonzero"/></clipPath><clipPath id="337cb7123c"><path d="M 96 97.230469 L 278.980469 97.230469 L 278.980469 280 L 96 280 Z M 96 97.230469 " clip-rule="nonzero"/></clipPath><clipPath id="6c0fcdcc99"><path d="M 118.453125 128.554688 C 141.886719 123.113281 143.769531 122.484375 147.746094 120.496094 C 155.171875 116.625 169.820312 104.28125 177.769531 100.828125 C 182.375 98.738281 185.617188 98.316406 189.488281 97.796875 C 193.359375 97.273438 198.171875 97.273438 200.996094 97.691406 C 202.667969 97.898438 203.507812 98.003906 204.972656 98.738281 C 207.0625 99.78125 209.785156 101.664062 211.773438 103.863281 C 214.074219 106.476562 215.640625 109.40625 217.734375 113.800781 C 221.1875 121.019531 224.953125 135.5625 229.035156 144.035156 C 232.277344 150.730469 236.042969 157.425781 239.078125 161.089844 C 240.855469 163.183594 241.691406 163.808594 244.097656 165.484375 C 249.121094 168.832031 263.558594 175.210938 268.789062 178.457031 C 271.507812 180.128906 272.972656 180.96875 274.542969 182.746094 C 276.214844 184.628906 277.679688 187.558594 278.308594 189.648438 C 278.832031 191.21875 278.621094 192.054688 278.726562 194.042969 C 278.832031 197.707031 278.832031 205.132812 278.308594 209.945312 C 277.785156 214.132812 277.261719 217.898438 275.796875 221.347656 C 274.4375 224.488281 272.660156 226.683594 270.042969 229.824219 C 266.277344 234.324219 258.953125 239.34375 254.664062 245.203125 C 250.269531 250.957031 247.339844 259.535156 244.097656 264.660156 C 241.796875 268.21875 239.703125 271.355469 237.613281 273.449219 C 236.148438 274.808594 234.996094 275.648438 233.324219 276.378906 C 231.542969 277.214844 229.871094 277.632812 227.253906 277.949219 C 222.652344 278.574219 214.492188 279.621094 207.902344 278.15625 C 200.261719 276.378906 189.382812 268.53125 184.675781 266.648438 C 182.6875 265.8125 182.164062 265.601562 180.175781 265.289062 C 176.933594 264.871094 170.445312 264.558594 166.367188 265.183594 C 163.125 265.601562 160.925781 266.335938 157.683594 267.800781 C 152.660156 269.894531 145.234375 275.855469 139.898438 277.84375 C 135.820312 279.308594 132.050781 279.726562 128.703125 279.832031 C 126.089844 279.9375 123.683594 279.515625 121.695312 278.890625 C 120.230469 278.367188 119.183594 277.949219 117.824219 276.902344 C 115.730469 275.226562 113.222656 272.195312 110.816406 268.636719 C 107.046875 263.09375 101.085938 253.46875 98.785156 246.457031 C 96.898438 240.808594 96.691406 235.785156 96.273438 230.136719 C 95.855469 224.070312 95.957031 218.105469 96.585938 210.992188 C 97.421875 201.996094 101.609375 188.183594 101.921875 180.546875 C 102.234375 175.945312 101.710938 173.433594 101.191406 169.667969 C 100.5625 165.484375 98.785156 161.195312 98.46875 156.800781 C 98.261719 152.195312 98.679688 146.652344 99.933594 142.570312 C 100.875 139.222656 102.339844 136.503906 104.539062 133.886719 C 106.945312 130.960938 110.1875 128.03125 114.058594 126.25 C 118.765625 124.160156 125.878906 124.578125 131.320312 123.320312 C 136.238281 122.171875 141.050781 121.125 145.441406 119.242188 C 149.941406 117.253906 153.707031 114.742188 157.996094 111.917969 C 162.914062 108.570312 169.296875 102.503906 173.0625 100.304688 C 175.050781 99.15625 176.304688 98.109375 177.875 98.109375 C 179.234375 98.214844 181.222656 99.261719 181.746094 100.304688 C 182.164062 101.457031 181.433594 103.863281 180.59375 104.59375 C 179.863281 105.328125 178.1875 105.433594 177.246094 105.222656 C 176.515625 105.117188 175.78125 104.59375 175.363281 103.863281 C 174.839844 103.027344 174.527344 101.457031 174.945312 100.515625 C 175.257812 99.574219 176.410156 98.316406 177.457031 98.214844 C 178.609375 98.003906 180.910156 98.945312 181.535156 99.992188 C 182.058594 101.039062 181.851562 102.710938 180.910156 104.386719 C 178.710938 108.046875 168.460938 113.800781 162.285156 117.671875 C 156.636719 121.230469 150.777344 124.785156 145.234375 126.878906 C 140.527344 128.761719 136.027344 129.597656 131.425781 130.4375 C 126.925781 131.273438 121.589844 130.4375 117.824219 132.003906 C 114.582031 133.367188 111.652344 136.191406 109.664062 138.699219 C 107.988281 140.792969 106.945312 142.886719 106.210938 145.605469 C 105.269531 148.953125 105.0625 153.453125 105.375 157.53125 C 105.6875 161.925781 107.675781 167.050781 108.304688 171.027344 C 108.617188 174.0625 108.929688 175.632812 108.722656 179.1875 C 108.199219 186.40625 103.492188 201.890625 102.65625 211.515625 C 101.921875 219.363281 102.132812 226.582031 102.757812 232.859375 C 103.28125 238.089844 103.492188 241.855469 105.480469 246.875 C 108.199219 253.570312 116.148438 264.871094 119.601562 268.847656 C 121.066406 270.625 121.800781 271.566406 123.367188 272.195312 C 125.460938 273.136719 128.914062 273.242188 131.527344 273.03125 C 134.144531 272.820312 136.132812 272.195312 139.167969 270.9375 C 143.980469 268.949219 152.242188 262.570312 157.371094 260.476562 C 160.820312 259.117188 163.332031 258.699219 166.367188 258.382812 C 169.296875 258.070312 172.015625 258.175781 175.15625 258.382812 C 178.816406 258.699219 182.6875 258.90625 187.082031 260.371094 C 193.148438 262.464844 200.996094 269.472656 207.585938 271.253906 C 213.027344 272.613281 218.78125 272.089844 223.175781 271.777344 C 226.523438 271.460938 229.347656 271.355469 231.648438 269.996094 C 233.949219 268.53125 235.101562 266.335938 237.089844 263.40625 C 240.226562 258.699219 243.15625 249.703125 247.65625 243.320312 C 252.675781 236.414062 262.929688 227.941406 266.382812 223.546875 C 267.847656 221.558594 268.476562 221.035156 269.3125 218.945312 C 270.566406 215.59375 271.402344 209.839844 271.71875 205.132812 C 272.03125 200.214844 272.03125 193.3125 271.089844 190.171875 C 270.460938 188.605469 270.253906 188.183594 268.789062 186.824219 C 264.707031 183.164062 245.980469 175.210938 240.019531 171.027344 C 236.984375 169.039062 235.519531 167.574219 233.742188 165.691406 C 232.171875 163.914062 231.335938 162.761719 229.871094 160.355469 C 227.253906 155.964844 223.070312 147.699219 220.035156 140.6875 C 216.6875 132.945312 213.65625 121.4375 211.039062 115.789062 C 209.46875 112.753906 208.632812 110.769531 206.855469 108.882812 C 205.179688 107.105469 203.296875 105.433594 200.890625 104.59375 C 197.960938 103.757812 193.777344 104.28125 190.21875 104.804688 C 186.558594 105.328125 183 105.851562 179.027344 107.839844 C 173.585938 110.453125 166.261719 117.464844 161.136719 120.8125 C 157.578125 123.113281 155.066406 124.578125 151.71875 126.25 C 148.269531 127.820312 145.234375 129.179688 140.945312 130.4375 C 134.875 132.214844 122.007812 135.457031 118.554688 135.039062 C 117.511719 134.828125 116.988281 134.515625 116.464844 133.992188 C 116.046875 133.46875 115.628906 132.632812 115.628906 131.902344 C 115.628906 131.167969 115.941406 130.226562 116.464844 129.703125 C 116.882812 129.179688 118.453125 128.554688 118.453125 128.554688 " clip-rule="nonzero"/></clipPath></defs><g clip-path="url(#bf7406fae1)"><g clip-path="url(#3773154938)"><path stroke-linecap="butt" transform="matrix(0.75, 0, 0, 0.75, 171.580628, 171.468666)" fill="none" stroke-linejoin="miter" d="M 19.470623 0.000112613 C 8.715414 0.000112613 0.00187149 8.718863 0.00187149 19.468864 C 0.00187149 30.218865 8.715414 38.937615 19.470623 38.937615 C 30.220623 38.937615 38.939374 30.218865 38.939374 19.468864 C 38.939374 8.718863 30.220623 0.000112613 19.470623 0.000112613 Z M 19.470623 0.000112613 " stroke="#fda45f" stroke-width="4" stroke-opacity="1" stroke-miterlimit="4"/></g></g><g clip-path="url(#96bdf50264)"><g clip-path="url(#4c2ad6e46e)"><path stroke-linecap="butt" transform="matrix(0.75, 0, 0, 0.75, 141.208603, 143.835094)" fill="none" stroke-linejoin="miter" d="M 59.966658 0.00112499 C 26.846864 0.00112499 -0.00209597 26.850085 -0.00209597 59.969879 C -0.00209597 93.089673 26.846864 119.938633 59.966658 119.938633 C 93.086452 119.938633 119.935412 93.089673 119.935412 59.969879 C 119.935412 26.850085 93.086452 0.00112499 59.966658 0.00112499 Z M 59.966658 0.00112499 " stroke="#fda45f" stroke-width="4" stroke-opacity="1" stroke-miterlimit="4"/></g></g><g clip-path="url(#c42a29d02c)"><g clip-path="url(#4a39a82c46)"><path stroke-linecap="butt" transform="matrix(0.75, 0, 0, 0.75, 104.962848, 107.589353)" fill="none" stroke-linejoin="miter" d="M 108.294335 0.00065442 C 48.487039 0.00065442 -0.00254734 48.485033 -0.00254734 108.297537 C -0.00254734 168.11004 48.487039 216.594419 108.294335 216.594419 C 168.106839 216.594419 216.591217 168.11004 216.591217 108.297537 C 216.591217 48.485033 168.106839 0.00065442 108.294335 0.00065442 Z M 108.294335 0.00065442 " stroke="#fda45f" stroke-width="4" stroke-opacity="1" stroke-miterlimit="4"/></g></g><g clip-path="url(#207d2046ed)"><g clip-path="url(#b5ea7de379)"><path stroke-linecap="butt" transform="matrix(0.75, 0, 0, 0.75, 60.574952, 60.574947)" fill="none" stroke-linejoin="miter" d="M 169.2282 -0.000971296 C 75.764653 -0.000971296 -0.000977296 75.764659 -0.000977296 169.228206 C -0.000977296 262.686546 75.764653 338.452176 169.2282 338.452176 C 262.68654 338.452176 338.45217 262.686546 338.45217 169.228206 C 338.45217 75.764659 262.68654 -0.000971296 169.2282 -0.000971296 Z M 169.2282 -0.000971296 " stroke="#fda45f" stroke-width="4" stroke-opacity="1" stroke-miterlimit="4"/></g></g><path stroke-linecap="butt" transform="matrix(0.74999, -0.00387995, 0.00387995, 0.74999, 60.569132, 187.688248)" fill="none" stroke-linejoin="miter" d="M -0.000972123 1.499017 L 338.472344 1.500029 " stroke="#fda45f" stroke-width="3" stroke-opacity="1" stroke-miterlimit="4"/><path stroke-linecap="butt" transform="matrix(0.53033, 0.53033, -0.53033, 0.53033, 97.544448, 98.648629)" fill="none" stroke-linejoin="miter" d="M 0.00210745 1.500134 L 336.651247 1.500134 " stroke="#fda45f" stroke-width="3" stroke-opacity="1" stroke-miterlimit="4"/><path stroke-linecap="butt" transform="matrix(0, 0.75, -0.75, 0, 188.619866, 60.580074)" fill="none" stroke-linejoin="miter" d="M -0.00259816 1.498363 L 338.466174 1.498363 " stroke="#fda45f" stroke-width="3" stroke-opacity="1" stroke-miterlimit="4"/><path stroke-linecap="butt" transform="matrix(-0.53033, 0.53033, -0.53033, -0.53033, 276.075075, 100.239617)" fill="none" stroke-linejoin="miter" d="M -0.000452309 1.497303 L 336.65237 1.500986 " stroke="#fda45f" stroke-width="3" stroke-opacity="1" stroke-miterlimit="4"/><g clip-path="url(#8e3c2b9c98)"><g clip-path="url(#78bfbe4f97)"><path fill="#9c2e0e" d="M 91.566406 94.257812 L 101.933594 94.257812 L 101.933594 104.625 L 91.566406 104.625 Z M 91.566406 94.257812 " fill-opacity="1" fill-rule="nonzero"/></g></g><g clip-path="url(#23e3bca17e)"><g clip-path="url(#21972589b0)"><path fill="#9c2e0e" d="M 181.003906 55.390625 L 191.371094 55.390625 L 191.371094 65.757812 L 181.003906 65.757812 Z M 181.003906 55.390625 " fill-opacity="1" fill-rule="nonzero"/></g></g><g clip-path="url(#6fcfa954b9)"><g clip-path="url(#3fedb3b621)"><path fill="#9c2e0e" d="M 270.101562 94.257812 L 280.46875 94.257812 L 280.46875 104.625 L 270.101562 104.625 Z M 270.101562 94.257812 " fill-opacity="1" fill-rule="nonzero"/></g></g><g clip-path="url(#5b645d239a)"><g clip-path="url(#62f0270563)"><path fill="#9c2e0e" d="M 309.242188 182.316406 L 319.609375 182.316406 L 319.609375 192.683594 L 309.242188 192.683594 Z M 309.242188 182.316406 " fill-opacity="1" fill-rule="nonzero"/></g></g><g clip-path="url(#d66ee7b6ff)"><g clip-path="url(#b660d5feaa)"><path fill="#9c2e0e" d="M 270.101562 271.460938 L 280.46875 271.460938 L 280.46875 281.832031 L 270.101562 281.832031 Z M 270.101562 271.460938 " fill-opacity="1" fill-rule="nonzero"/></g></g><g clip-path="url(#e90c99b97d)"><g clip-path="url(#c534c2e7d9)"><path fill="#9c2e0e" d="M 181.003906 309.242188 L 191.371094 309.242188 L 191.371094 319.609375 L 181.003906 319.609375 Z M 181.003906 309.242188 " fill-opacity="1" fill-rule="nonzero"/></g></g><g clip-path="url(#fb6f3779b9)"><g clip-path="url(#5ae0258913)"><path fill="#9c2e0e" d="M 91.566406 272.792969 L 101.933594 272.792969 L 101.933594 283.160156 L 91.566406 283.160156 Z M 91.566406 272.792969 " fill-opacity="1" fill-rule="nonzero"/></g></g><g clip-path="url(#b1dcdec1b5)"><g clip-path="url(#d46bacc7ac)"><path fill="#9c2e0e" d="M 55.390625 183.628906 L 65.757812 183.628906 L 65.757812 193.996094 L 55.390625 193.996094 Z M 55.390625 183.628906 " fill-opacity="1" fill-rule="nonzero"/></g></g><g clip-path="url(#337cb7123c)"><g clip-path="url(#6c0fcdcc99)"><path fill="#9c2e0e" d="M 92.085938 93.503906 L 282.703125 93.503906 L 282.703125 284.121094 L 92.085938 284.121094 Z M 92.085938 93.503906 " fill-opacity="1" fill-rule="nonzero"/></g></g></svg>